<!DOCTYPE html>
<html lang="en">
<head>
    <meta charset="UTF-8">
    <meta name="viewport" content="width=device-width, initial-scale=1.0">
    <meta http-equiv="X-UA-Compatible" content="ie=edge">
    <title>比較</title>
    <style>
    .flex {
        display: flex;
    }
    .hide {
        display: none;
    }
    pre {
        white-space: pre-wrap;
    }
    .flex.video {
        max-height: 80vh;
    }
    .flex.video > pre,
    .flex.answer > video,
    .flex.answer > .ans-o,
    .flex.answer-o > video,
    .flex.answer-o > .ans {
        display: none;
    }
    </style>
</head>
<body>
    <div class="flex video">
        <video id='yahoo' src="Yahoo-魔法禁書目錄-S3EP3-1080p-89s.mp4"></video>
        <video id='ani-gamer' src="動畫瘋-魔法禁書目錄-S3EP3-1080p-89s.mp4"></video>
        <pre id="ans1" class="ans">
            <code>
General
Complete name                            : Yahoo-魔法禁書目錄-S3EP3-1080p-89s.mp4
Format                                   : MPEG-4
Format profile                           : Base Media
Codec ID                                 : isom (isom/iso2/avc1/mp41)
File size                                : 49.3 MiB
Duration                                 : 1mn 29s
Overall bit rate                         : 4 640 Kbps
Encoded date                             : UTC 1904-01-01 00:00:00
Tagged date                              : UTC 1904-01-01 00:00:00
Writing application                      : Lavf56.40.101

Video
ID                                       : 1
Format                                   : AVC
Format/Info                              : Advanced Video Codec
Format profile                           : High@L4
Format settings, CABAC                   : Yes
Format settings, ReFrames                : 4 frames
Codec ID                                 : avc1
Codec ID/Info                            : Advanced Video Coding
Duration                                 : 1mn 29s
Bit rate                                 : 4 442 Kbps
Nominal bit rate                         : 3 637 Kbps
Width                                    : 1 920 pixels
Height                                   : 1 080 pixels
Display aspect ratio                     : 16:9
Frame rate mode                          : Variable
Frame rate                               : 23.976 (24000/1001) fps
Minimum frame rate                       : 23.974 fps
Maximum frame rate                       : 24.000 fps
Color space                              : YUV
Chroma subsampling                       : 4:2:0
Bit depth                                : 8 bits
Scan type                                : Progressive
Bits/(Pixel*Frame)                       : 0.089
Stream size                              : 47.2 MiB (96%)
Writing library                          : x264 core 148 r2705 3f5ed56
Encoding settings                        : cabac=1 / ref=3 / deblock=1:0:0 / analyse=0x3:0x113 / me=hex / subme=7 / psy=1 / psy_rd=1.00:0.00 / mixed_ref=1 / me_range=16 / chroma_me=1 / trellis=1 / 8x8dct=1 / cqm=0 / deadzone=21,11 / fast_pskip=1 / chroma_qp_offset=-2 / threads=8 / lookahead_threads=1 / sliced_threads=0 / nr=0 / decimate=1 / interlaced=0 / bluray_compat=0 / constrained_intra=0 / bframes=3 / b_pyramid=2 / b_adapt=1 / b_bias=0 / direct=1 / weightb=1 / open_gop=0 / weightp=2 / keyint=48 / keyint_min=25 / scenecut=0 / intra_refresh=0 / rc_lookahead=40 / rc=2pass / mbtree=1 / bitrate=3637 / ratetol=1.0 / qcomp=0.60 / qpmin=0 / qpmax=69 / qpstep=4 / cplxblur=20.0 / qblur=0.5 / vbv_maxrate=4649 / vbv_bufsize=9299 / nal_hrd=none / filler=0 / ip_ratio=1.40 / aq=1:1.00
            </code>
        </pre>
        <pre id="ans2" class="ans">
            <code>
General
Complete name                            : 動畫瘋-魔法禁書目錄-S3EP3-1080p-89s.mp4
Format                                   : MPEG-4
Format profile                           : Base Media
Codec ID                                 : isom (isom/iso2/avc1/mp41)
File size                                : 48.8 MiB
Duration                                 : 1mn 29s
Overall bit rate                         : 4 602 Kbps
Encoded date                             : UTC 1904-01-01 00:00:00
Tagged date                              : UTC 1904-01-01 00:00:00
Writing application                      : Lavf56.40.101

Video
ID                                       : 1
Format                                   : AVC
Format/Info                              : Advanced Video Codec
Format profile                           : High@L4
Format settings, CABAC                   : Yes
Format settings, ReFrames                : 3 frames
Format settings, GOP                     : M=1, N=24
Codec ID                                 : avc1
Codec ID/Info                            : Advanced Video Coding
Duration                                 : 1mn 29s
Bit rate                                 : 4 402 Kbps
Nominal bit rate                         : 4 808 Kbps
Width                                    : 1 920 pixels
Height                                   : 1 080 pixels
Display aspect ratio                     : 16:9
Frame rate mode                          : Constant
Frame rate                               : 24.000 fps
Color space                              : YUV
Chroma subsampling                       : 4:2:0
Bit depth                                : 8 bits
Scan type                                : Progressive
Bits/(Pixel*Frame)                       : 0.088
Stream size                              : 46.7 MiB (96%)
Writing library                          : x264 core 152 r2851 ba24899
Encoding settings                        : cabac=1 / ref=3 / deblock=1:0:0 / analyse=0x3:0x113 / me=hex / subme=7 / psy=1 / psy_rd=1.00:0.00 / mixed_ref=1 / me_range=16 / chroma_me=1 / trellis=1 / 8x8dct=1 / cqm=0 / deadzone=21,11 / fast_pskip=1 / chroma_qp_offset=-2 / threads=34 / lookahead_threads=5 / sliced_threads=0 / nr=0 / decimate=1 / interlaced=0 / bluray_compat=0 / constrained_intra=0 / bframes=0 / weightp=2 / keyint=24 / keyint_min=13 / scenecut=0 / intra_refresh=0 / rc_lookahead=24 / rc=abr / mbtree=1 / bitrate=4808 / ratetol=1.0 / qcomp=0.60 / qpmin=0 / qpmax=69 / qpstep=4 / vbv_maxrate=4900 / vbv_bufsize=4808 / nal_hrd=none / filler=0 / ip_ratio=1.40 / aq=1:1.00
            </code>
        </pre>
        <pre id="ans3" class="ans-o">
            <code>
General
Complete name                            : Yahoo-魔法禁書目錄-S3EP3-1080p.mp4
Format                                   : MPEG-4
Format profile                           : Base Media
Codec ID                                 : isom (isom/iso2/avc1/mp41)
File size                                : 393 MiB
Duration                                 : 23mn 40s
Overall bit rate                         : 2 321 Kbps
Encoded date                             : UTC 1904-01-01 00:00:00
Tagged date                              : UTC 1904-01-01 00:00:00
Writing application                      : Lavf56.40.101

Video
ID                                       : 1
Format                                   : AVC
Format/Info                              : Advanced Video Codec
Format profile                           : High@L4
Format settings, CABAC                   : Yes
Format settings, ReFrames                : 4 frames
Codec ID                                 : avc1
Codec ID/Info                            : Advanced Video Coding
Duration                                 : 23mn 40s
Bit rate                                 : 2 123 Kbps
Nominal bit rate                         : 3 637 Kbps
Width                                    : 1 920 pixels
Height                                   : 1 080 pixels
Display aspect ratio                     : 16:9
Frame rate mode                          : Variable
Frame rate                               : 23.976 fps
Minimum frame rate                       : 23.413 fps
Maximum frame rate                       : 24.000 fps
Color space                              : YUV
Chroma subsampling                       : 4:2:0
Bit depth                                : 8 bits
Scan type                                : Progressive
Bits/(Pixel*Frame)                       : 0.043
Stream size                              : 359 MiB (91%)
Writing library                          : x264 core 148 r2705 3f5ed56
Encoding settings                        : cabac=1 / ref=3 / deblock=1:0:0 / analyse=0x3:0x113 / me=hex / subme=7 / psy=1 / psy_rd=1.00:0.00 / mixed_ref=1 / me_range=16 / chroma_me=1 / trellis=1 / 8x8dct=1 / cqm=0 / deadzone=21,11 / fast_pskip=1 / chroma_qp_offset=-2 / threads=8 / lookahead_threads=1 / sliced_threads=0 / nr=0 / decimate=1 / interlaced=0 / bluray_compat=0 / constrained_intra=0 / bframes=3 / b_pyramid=2 / b_adapt=1 / b_bias=0 / direct=1 / weightb=1 / open_gop=0 / weightp=2 / keyint=48 / keyint_min=25 / scenecut=0 / intra_refresh=0 / rc_lookahead=40 / rc=2pass / mbtree=1 / bitrate=3637 / ratetol=1.0 / qcomp=0.60 / qpmin=0 / qpmax=69 / qpstep=4 / cplxblur=20.0 / qblur=0.5 / vbv_maxrate=4649 / vbv_bufsize=9299 / nal_hrd=none / filler=0 / ip_ratio=1.40 / aq=1:1.00
Encoded date                             : UTC 1904-01-01 00:00:00
Tagged date                              : UTC 1904-01-01 00:00:00

Audio
ID                                       : 2
Format                                   : AAC
Format/Info                              : Advanced Audio Codec
Format profile                           : LC
Codec ID                                 : 40
Duration                                 : 23mn 40s
Bit rate mode                            : Constant
Bit rate                                 : 192 Kbps
Channel(s)                               : 2 channels
Channel positions                        : Front: L R
Sampling rate                            : 48.0 KHz
Frame rate                               : 46.875 fps (1024 spf)
Compression mode                         : Lossy
Stream size                              : 32.5 MiB (8%)
Default                                  : Yes
Alternate group                          : 1
Encoded date                             : UTC 1904-01-01 00:00:00
Tagged date                              : UTC 1904-01-01 00:00:00
            </code>
        </pre>
        <pre id="ans4" class="ans-o">
            <code>
General
Complete name                            : 動畫瘋-魔法禁書目錄-S3EP3-1080p.mp4
Format                                   : MPEG-4
Format profile                           : Base Media
Codec ID                                 : isom (isom/iso2/avc1/mp41)
File size                                : 818 MiB
Duration                                 : 23mn 40s
Overall bit rate                         : 4 834 Kbps
Encoded date                             : UTC 1904-01-01 00:00:00
Tagged date                              : UTC 1904-01-01 00:00:00
Writing application                      : Lavf56.40.101

Video
ID                                       : 1
Format                                   : AVC
Format/Info                              : Advanced Video Codec
Format profile                           : High@L4
Format settings, CABAC                   : Yes
Format settings, ReFrames                : 3 frames
Format settings, GOP                     : M=1, N=24
Codec ID                                 : avc1
Codec ID/Info                            : Advanced Video Coding
Duration                                 : 23mn 40s
Bit rate                                 : 4 808 Kbps
Width                                    : 1 920 pixels
Height                                   : 1 080 pixels
Display aspect ratio                     : 16:9
Frame rate mode                          : Constant
Frame rate                               : 24.000 fps
Color space                              : YUV
Chroma subsampling                       : 4:2:0
Bit depth                                : 8 bits
Scan type                                : Progressive
Bits/(Pixel*Frame)                       : 0.097
Stream size                              : 784 MiB (96%)
Writing library                          : x264 core 152 r2851 ba24899
Encoding settings                        : cabac=1 / ref=3 / deblock=1:0:0 / analyse=0x3:0x113 / me=hex / subme=7 / psy=1 / psy_rd=1.00:0.00 / mixed_ref=1 / me_range=16 / chroma_me=1 / trellis=1 / 8x8dct=1 / cqm=0 / deadzone=21,11 / fast_pskip=1 / chroma_qp_offset=-2 / threads=34 / lookahead_threads=5 / sliced_threads=0 / nr=0 / decimate=1 / interlaced=0 / bluray_compat=0 / constrained_intra=0 / bframes=0 / weightp=2 / keyint=24 / keyint_min=13 / scenecut=0 / intra_refresh=0 / rc_lookahead=24 / rc=abr / mbtree=1 / bitrate=4808 / ratetol=1.0 / qcomp=0.60 / qpmin=0 / qpmax=69 / qpstep=4 / vbv_maxrate=4900 / vbv_bufsize=4808 / nal_hrd=none / filler=0 / ip_ratio=1.40 / aq=1:1.00
Encoded date                             : UTC 1904-01-01 00:00:00
Tagged date                              : UTC 1904-01-01 00:00:00

Audio
ID                                       : 2
Format                                   : AAC
Format/Info                              : Advanced Audio Codec
Format profile                           : LC
Codec ID                                 : 40
Duration                                 : 23mn 40s
Bit rate mode                            : Constant
Bit rate                                 : 192 Kbps
Channel(s)                               : 2 channels
Channel positions                        : Front: L R
Sampling rate                            : 48.0 KHz
Frame rate                               : 46.875 fps (1024 spf)
Compression mode                         : Lossy
Stream size                              : 33.1 MiB (4%)
Default                                  : Yes
Alternate group                          : 1
Encoded date                             : UTC 1904-01-01 00:00:00
Tagged date                              : UTC 1904-01-01 00:00:00
            </code>
        </pre>
    </div>
    <hr/>
    <button id="play">播放</button>
    <button id="pause">暫停</button>
    <button id="replay">重新播放</button>
    <button id="left">只顯示左邊</button>
    <button id="right">只顯示右邊</button>
    <button id="both">同時顯示</button>
    <button id="answer">答案</button>
    <button id="answer-o">原始檔案比較</button>

    <script>
    const $ = s => document.querySelector(s);
    EventTarget.prototype.on = EventTarget.prototype.addEventListener;

    const videos = [$('#yahoo'), $('#ani-gamer')];

    const reset = () => {
        videos[0].currentTime = 0.08;
        videos[1].currentTime = 0;
    }

    reset();

    $('#play').on('click', () => {
        videos.forEach(v => v.play());
    });
    $('#pause').on('click', () => {
        videos.forEach(v => v.pause());
    });
    $('#replay').on('click', reset);

    $('#left').on('click', () => {
        $('.flex').classList.add('video');
        $('.flex').classList.remove('answer');
        $('.flex').classList.remove('answer-o');
        videos[0].classList.remove('hide');
        videos[1].classList.add('hide');
    });
    $('#right').on('click', () => {
        $('.flex').classList.add('video');
        $('.flex').classList.remove('answer');
        $('.flex').classList.remove('answer-o');
        videos[0].classList.add('hide');
        videos[1].classList.remove('hide');
    });
    $('#both').on('click', () => {
        $('.flex').classList.add('video');
        $('.flex').classList.remove('answer');
        $('.flex').classList.remove('answer-o');
        videos[0].classList.remove('hide');
        videos[1].classList.remove('hide');
    });
    $('#answer').on('click', () => {
        $('.flex').classList.add('answer');
        $('.flex').classList.remove('answer-o');
        $('.flex').classList.remove('video');
    });
    $('#answer-o').on('click', () => {
        $('.flex').classList.add('answer-o');
        $('.flex').classList.remove('answer');
        $('.flex').classList.remove('video');
    });
    </script>
</body>
</html>

